<svg id="Capa_1" enable-background="new 0 0 512.004 512.004" height="100%" viewBox="0 0 512.004 512.004" width="100%" xmlns="http://www.w3.org/2000/svg"><g><g><path d="m317.317 440.665c-9.209-6.143-14.816-17.008-14.816-28.709v-29.277l-4.251-4.058h-80.5l-8.334 4.058v29.277c0 11.701-5.607 22.566-14.816 28.709l-20.634 13.764 4.284 3.941h156.25l3.451-3.941z" fill="#4a80aa"/><path d="m237.214 440.665c9.209-6.143 14.816-17.008 14.816-28.709v-29.277l8.334-4.058h-42.614l-8.334 4.058v29.277c0 11.701-5.607 22.566-14.816 28.709l-20.634 13.764 4.284 3.941h42.614l-4.284-3.941z" fill="#407093"/><g><path d="m475.641 27.044h-439.364c-15.891 0-28.82 12.928-28.82 28.82v297.995c0 15.891 12.928 28.82 28.82 28.82h439.364c15.891 0 28.82-12.928 28.82-28.82v-297.995c0-15.891-12.929-28.82-28.82-28.82z" fill="#3f6d8e"/></g><path d="m40.124 353.859v-297.995c0-15.891 12.928-28.82 28.82-28.82h-32.667c-15.891 0-28.82 12.928-28.82 28.82v297.995c0 15.891 12.928 28.82 28.82 28.82h32.667c-15.892-.001-28.82-12.929-28.82-28.82z" fill="#365e7d"/><path d="m355.126 454.429h-198.335c-5.522 0-9.999 4.477-9.999 10v11.197c0 5.523 4.477 10 9.999 10h198.335c5.522 0 10-4.477 10-10v-11.197c0-5.523-4.477-10-10-10z" fill="#3f6d8e"/><path d="m189.406 475.625v-11.197c0-5.523 4.477-10 9.999-10h-42.614c-5.522 0-9.999 4.477-9.999 10v11.197c0 5.523 4.477 10 9.999 10h42.614c-5.522 0-9.999-4.477-9.999-10z" fill="#365e7d"/><path d="m473.265 93.895h-434.612v253.44c0 2.291 1.856 4.146 4.147 4.146h426.318c2.29 0 4.147-1.856 4.147-4.146z" fill="#e4f6ff"/><path d="m65.994 347.336c0-7.479 0-174.542 0-253.44h-27.341v253.44c0 2.291 1.856 4.146 4.147 4.146h27.341c-2.291 0-4.147-1.856-4.147-4.146z" fill="#d3effb"/><path d="m86.943 185.529-8.246 7.011v110.337c0 5.061 4.103 9.163 9.163 9.163h86.5c5.061 0 9.163-4.103 9.163-9.163v-110.337l-6.94-7.011z" fill="#d3effb"/><path d="m106.965 302.877v-110.337l8.246-7.011h-28.268l-8.246 7.011v110.337c0 5.061 4.103 9.163 9.163 9.163h28.268c-5.06 0-9.163-4.102-9.163-9.163z" fill="#b1e4f9"/><path d="m174.361 157.54h-86.5c-5.061 0-9.163 4.103-9.163 9.163v25.837h104.826v-25.837c0-5.06-4.103-9.163-9.163-9.163z" fill="#90d8f9"/><path d="m116.129 157.54h-28.269c-5.061 0-9.163 4.103-9.163 9.163v25.837h28.268v-25.837c0-5.06 4.103-9.163 9.164-9.163z" fill="#90d8f9"/><path d="m345.517 166.971c-5.915 0-11.652.761-17.122 2.184v4.454s48.29 12.11 48.29 61.18-45.185 61.571-45.185 61.571l-3.106 4.064c5.47 1.423 11.207 2.185 17.122 2.185 37.456 0 67.819-30.364 67.819-67.819.001-37.455-30.363-67.819-67.818-67.819z" fill="#ffc250"/><path d="m86.943 58.24v39.655c0 13.335 10.81 24.145 24.145 24.145 13.335 0 24.145-10.81 24.145-24.145v-39.655z" fill="#ffaa5b"/><path d="m135.233 58.24v39.655c0 13.335 10.81 24.145 24.145 24.145 13.335 0 24.145-10.81 24.145-24.145v-39.655z" fill="#dd636e"/><path d="m183.524 58.24v39.655c0 13.335 10.81 24.145 24.145 24.145s24.145-10.81 24.145-24.145v-39.655z" fill="#ffaa5b"/><path d="m231.814 58.24v39.655c0 13.335 10.81 24.145 24.145 24.145 13.335 0 24.145-10.81 24.145-24.145v-39.655z" fill="#dd636e"/><path d="m280.104 58.24v39.655c0 13.335 10.81 24.145 24.145 24.145 13.335 0 24.145-10.81 24.145-24.145v-39.655z" fill="#ffaa5b"/><path d="m328.394 58.24v39.655c0 13.335 10.81 24.145 24.145 24.145 13.335 0 24.145-10.81 24.145-24.145v-39.655z" fill="#dd636e"/><path d="m376.684 58.24v39.655c0 13.335 10.81 24.145 24.145 24.145s24.145-10.81 24.145-24.145v-39.655z" fill="#ffaa5b"/><path d="m38.653 66.162v31.733c0 13.335 10.81 24.145 24.145 24.145s24.145-10.81 24.145-24.145v-39.655h-40.368c-4.375 0-7.922 3.547-7.922 7.922z" fill="#dd636e"/><path d="m465.342 58.24h-40.368v39.655c0 13.335 10.81 24.145 24.145 24.145s24.145-10.81 24.145-24.145v-31.733c.001-4.375-3.546-7.922-7.922-7.922z" fill="#dd636e"/><path d="m111.088 97.895v-39.655h-24.145v39.655c0 13.335 10.81 24.145 24.145 24.145 4.399 0 8.52-1.182 12.073-3.238-7.215-4.175-12.073-11.971-12.073-20.907z" fill="#ff9838"/><path d="m159.378 97.895v-39.655h-24.145v39.655c0 13.335 10.81 24.145 24.145 24.145 4.399 0 8.52-1.182 12.073-3.238-7.215-4.175-12.073-11.971-12.073-20.907z" fill="#da4a54"/><path d="m207.669 97.895v-39.655h-24.145v39.655c0 13.335 10.81 24.145 24.145 24.145 4.399 0 8.52-1.182 12.073-3.238-7.216-4.175-12.073-11.971-12.073-20.907z" fill="#ff9838"/><path d="m255.959 97.895v-39.655h-24.145v39.655c0 13.335 10.81 24.145 24.145 24.145 4.399 0 8.52-1.182 12.072-3.238-7.215-4.175-12.072-11.971-12.072-20.907z" fill="#da4a54"/><path d="m304.249 97.895v-39.655h-24.145v39.655c0 13.335 10.81 24.145 24.145 24.145 4.399 0 8.52-1.182 12.073-3.238-7.215-4.175-12.073-11.971-12.073-20.907z" fill="#ff9838"/><path d="m352.539 97.895v-39.655h-24.145v39.655c0 13.335 10.81 24.145 24.145 24.145 4.399 0 8.52-1.182 12.073-3.238-7.215-4.175-12.073-11.971-12.073-20.907z" fill="#da4a54"/><path d="m400.829 97.895v-39.655h-24.145v39.655c0 13.335 10.81 24.145 24.145 24.145 4.399 0 8.52-1.182 12.073-3.238-7.215-4.175-12.073-11.971-12.073-20.907z" fill="#ff9838"/><path d="m62.798 97.895v-39.655h-16.223c-4.375 0-7.922 3.547-7.922 7.922v31.733c0 13.335 10.81 24.145 24.145 24.145 4.399 0 8.52-1.182 12.073-3.238-7.215-4.175-12.073-11.971-12.073-20.907z" fill="#da4a54"/><path d="m449.119 97.895v-39.655h-24.145v39.655c0 13.335 10.81 24.145 24.145 24.145 4.399 0 8.52-1.182 12.073-3.238-7.215-4.175-12.073-11.971-12.073-20.907z" fill="#da4a54"/><circle cx="311.271" cy="234.79" fill="#ffe07d" r="67.819"/><path d="m267.203 234.79c0-33.402 24.154-61.143 55.944-66.761-3.858-.682-7.821-1.058-11.875-1.058-37.455 0-67.819 30.364-67.819 67.819s30.364 67.819 67.819 67.819c4.054 0 8.017-.376 11.875-1.058-31.79-5.617-55.944-33.359-55.944-66.761z" fill="#ffd064"/></g><g><path d="m46.618 50.407c-8.504 0-15.422 6.919-15.422 15.423v281.173c0 6.422 5.225 11.646 11.646 11.646h426.318c6.422 0 11.646-5.225 11.646-11.646 0-10.556 0-268.176 0-281.173 0-8.504-6.918-15.423-15.422-15.423-15.567 0-401.514 0-418.766 0zm144.448 15h33.29v32.155c0 9.179-7.467 16.646-16.645 16.646-9.179 0-16.646-7.467-16.646-16.646v-32.155zm-48.29 0h33.29v32.155c0 9.179-7.467 16.646-16.646 16.646-9.178 0-16.645-7.467-16.645-16.646v-32.155zm-48.29 0h33.29v32.155c0 9.179-7.467 16.646-16.646 16.646-9.178 0-16.645-7.467-16.645-16.646v-32.155zm-48.29.423c0-.233.189-.423.422-.423h32.868v32.155c0 9.179-7.467 16.646-16.646 16.646-9.178 0-16.645-7.467-16.645-16.646v-31.732zm386.322-.423h32.868c.232 0 .422.189.422.423v31.732c0 9.179-7.467 16.646-16.646 16.646-9.178 0-16.645-7.467-16.645-16.646v-32.155zm-48.29 0h33.29v32.155c0 9.179-7.467 16.646-16.646 16.646-9.178 0-16.645-7.467-16.645-16.646v-32.155zm-48.29 0h33.29v32.155c0 9.179-7.467 16.646-16.646 16.646-9.178 0-16.645-7.467-16.645-16.646v-32.155zm-48.292 0h33.291v32.155c0 9.179-7.467 16.646-16.646 16.646s-16.646-7.467-16.646-16.646v-32.155zm-48.29 0h33.29v32.155c0 9.179-7.467 16.646-16.645 16.646-9.179 0-16.646-7.467-16.646-16.646v-32.155zm40.79 52.59c12.645 14.917 35.618 14.95 48.291 0 12.649 14.912 35.608 14.961 48.29 0 12.601 14.882 35.554 14.989 48.29 0 10.202 12.027 27.546 14.68 40.79 6.471v219.182h-419.611v-219.182c13.206 8.194 30.586 5.567 40.79-6.471 12.687 14.984 35.679 14.877 48.29 0 12.66 14.935 35.621 14.936 48.29 0 12.687 14.967 35.676 14.897 48.29 0 12.749 15.04 35.734 14.83 48.29 0z"/><path d="m151.781 270.545h-41.255c-4.143 0-7.5 3.357-7.5 7.5s3.357 7.5 7.5 7.5h41.255c4.143 0 7.5-3.357 7.5-7.5s-3.357-7.5-7.5-7.5z"/><path d="m151.781 243.043h-41.255c-4.143 0-7.5 3.357-7.5 7.5s3.357 7.5 7.5 7.5h41.255c4.143 0 7.5-3.357 7.5-7.5s-3.357-7.5-7.5-7.5z"/><path d="m151.781 215.541h-41.255c-4.143 0-7.5 3.357-7.5 7.5s3.357 7.5 7.5 7.5h41.255c4.143 0 7.5-3.357 7.5-7.5s-3.357-7.5-7.5-7.5z"/><path d="m290.095 255.72c-4.143 0-7.5 3.357-7.5 7.5s3.357 7.5 7.5 7.5h13.72v5.499c0 4.143 3.357 7.5 7.5 7.5s7.5-3.357 7.5-7.5v-5.516c11.76-.352 21.22-10.02 21.22-21.864s-9.46-21.513-21.22-21.865v-13.78h13.72c4.143 0 7.5-3.357 7.5-7.5s-3.357-7.5-7.5-7.5h-13.72v-5.498c0-4.143-3.357-7.5-7.5-7.5s-7.5 3.357-7.5 7.5v5.515c-11.76.352-21.22 10.021-21.22 21.865s9.46 21.512 21.22 21.864v13.78zm28.719-13.73c3.485.334 6.22 3.277 6.22 6.848s-2.735 6.513-6.22 6.847zm-21.219-21.914c0-3.572 2.735-6.514 6.22-6.848v13.696c-3.485-.335-6.22-3.277-6.22-6.848z"/><path d="m311.314 309.776c5.876 0 11.589-.698 17.081-1.977 47.34 11.046 92.484-25.022 92.484-73.342 0-48.234-45.047-84.402-92.484-73.341-5.492-1.279-11.205-1.977-17.081-1.977-41.531 0-75.319 33.788-75.319 75.318 0 41.531 33.788 75.319 75.319 75.319zm94.565-75.319c0 28.935-20.478 53.176-47.702 58.992 37.934-30.176 37.945-87.8.001-117.983 27.223 5.816 47.701 30.057 47.701 58.991zm-94.565-60.318c33.658 0 60.525 27.608 60.313 60.545-.121 33.187-27.164 60.092-60.313 60.092-33.26 0-60.319-27.06-60.319-60.319s27.06-60.318 60.319-60.318z"/><path d="m174.403 149.707h-86.5c-9.187 0-16.663 7.474-16.663 16.664v136.174c0 9.188 7.475 16.662 16.663 16.662h86.5c9.188 0 16.663-7.475 16.663-16.662v-29.043c0-4.143-3.357-7.5-7.5-7.5s-7.5 3.357-7.5 7.5v29.043c0 .916-.746 1.662-1.663 1.662h-86.5c-.917 0-1.663-.746-1.663-1.662v-102.837h89.826v38.794c0 4.143 3.357 7.5 7.5 7.5s7.5-3.357 7.5-7.5c0-7.698 0-64.628 0-72.131 0-9.188-7.473-16.664-16.663-16.664zm1.663 35.001h-89.826v-18.337c0-.917.746-1.663 1.663-1.663h86.5c.917 0 1.663.746 1.663 1.663z"/><path d="m475.684 19.212h-202.182c-4.143 0-7.5 3.357-7.5 7.5s3.357 7.5 7.5 7.5h202.182c11.756 0 21.32 9.563 21.32 21.319v297.994c0 11.756-9.564 21.32-21.32 21.32-11.445 0-427.458 0-439.364 0-11.756 0-21.319-9.564-21.319-21.32v-297.994c0-11.756 9.563-21.319 21.319-21.319h202.183c4.143 0 7.5-3.357 7.5-7.5s-3.357-7.5-7.5-7.5h-202.184c-20.026 0-36.319 16.293-36.319 36.319v297.994c0 20.027 16.293 36.32 36.319 36.32h165.64v21.777c0 9.138-4.397 17.747-11.478 22.47l-18.745 12.504h-14.903c-9.649 0-17.499 7.85-17.499 17.499v11.197c0 9.649 7.85 17.499 17.499 17.499h198.335c9.649 0 17.5-7.85 17.5-17.499v-11.197c0-9.649-7.851-17.499-17.5-17.499h-14.902l-18.745-12.504c-7.08-4.723-11.479-13.332-11.479-22.47v-21.777h165.64c20.027 0 36.32-16.293 36.32-36.32v-297.994c.002-20.026-16.291-36.319-36.318-36.319zm-120.515 442.385c1.379 0 2.5 1.121 2.5 2.499v11.197c0 1.378-1.121 2.499-2.5 2.499h-198.335c-1.378 0-2.499-1.121-2.499-2.499v-11.197c0-1.378 1.121-2.499 2.499-2.499zm-41.971-15.026.038.025h-114.468l.038-.025c11.367-7.582 18.153-20.646 18.153-34.948v-21.777h78.085v21.777c0 14.301 6.787 27.366 18.154 34.948z"/></g></g></svg>