<svg id="Capa_1" enable-background="new 0 0 512 512" height="100%" viewBox="0 0 512 512" width="100%" xmlns="http://www.w3.org/2000/svg"><g><g><path d="m321.322 7.833h-214.46l-3.614 8.525-71.25 72.25-8.745 2.833v345.017c0 8.486 6.879 15.364 15.364 15.364h37.645l5.985-10.132v-292l80-81.833h168l6.437-7.016v-37.644c.002-8.485-6.877-15.364-15.362-15.364z" fill="#e4f6ff"/><path d="m31.999 88.608-8.745 2.833v345.017c0 8.486 6.879 15.364 15.364 15.364h17.636v-387.81z" fill="#d3effb"/><path d="m389.695 102.646v-26.44c0-8.485-6.879-15.364-15.365-15.364h-214.459l-2.623 6.766-72.5 73.25-8.485 3.592v345.018c0 8.485 6.879 15.364 15.365 15.364h282.703c8.485 0 15.365-6.879 15.365-15.364v-188.893l-7.5-11.217v-181.281z" fill="#f4fbff"/><path d="m84.749 140.858-8.485 3.592v345.018c0 8.485 6.879 15.364 15.365 15.364h17.636v-388.742z" fill="#d3effb"/><g fill="#ffe07d"><path d="m161.343 193.742h-32.322c-4.55 0-8.238 3.688-8.238 8.238v32.322c0 4.55 3.688 8.238 8.238 8.238h32.322c4.55 0 8.238-3.688 8.238-8.238v-32.322c0-4.55-3.689-8.238-8.238-8.238z"/><path d="m161.343 281.974h-32.322c-4.55 0-8.238 3.688-8.238 8.238v32.322c0 4.55 3.688 8.238 8.238 8.238h32.322c4.55 0 8.238-3.688 8.238-8.238v-32.322c0-4.549-3.689-8.238-8.238-8.238z"/><path d="m161.343 370.207h-32.322c-4.55 0-8.238 3.688-8.238 8.238v32.322c0 4.55 3.688 8.238 8.238 8.238h32.322c4.55 0 8.238-3.688 8.238-8.238v-32.322c0-4.55-3.689-8.238-8.238-8.238z"/></g><path d="m145.182 234.302v-32.322c0-4.55 3.688-8.238 8.238-8.238h-24.399c-4.55 0-8.238 3.688-8.238 8.238v32.322c0 4.55 3.688 8.238 8.238 8.238h24.399c-4.55 0-8.238-3.688-8.238-8.238z" fill="#ffd064"/><path d="m145.182 322.534v-32.322c0-4.55 3.688-8.238 8.238-8.238h-24.399c-4.55 0-8.238 3.688-8.238 8.238v32.322c0 4.55 3.688 8.238 8.238 8.238h24.399c-4.55 0-8.238-3.688-8.238-8.238z" fill="#ffd064"/><path d="m145.182 410.767v-32.322c0-4.55 3.688-8.238 8.238-8.238h-24.399c-4.55 0-8.238 3.688-8.238 8.238v32.322c0 4.55 3.688 8.238 8.238 8.238h24.399c-4.55 0-8.238-3.689-8.238-8.238z" fill="#ffd064"/><g><ellipse cx="389.695" cy="201.611" fill="#dd636e" rx="98.964" ry="98.964" transform="matrix(.707 -.707 .707 .707 -28.421 334.606)"/><path d="m324.723 201.611c0-48.861 35.411-89.446 81.968-97.505-5.523-.956-11.201-1.459-16.996-1.459-54.656 0-98.964 44.308-98.964 98.964 0 54.657 44.308 98.964 98.964 98.964 5.796 0 11.474-.503 16.996-1.459-46.557-8.059-81.968-48.645-81.968-97.505z" fill="#da4a54"/><ellipse cx="389.695" cy="201.611" fill="#e4f6ff" rx="68.733" ry="68.733" transform="matrix(.099 -.995 .995 .099 150.666 569.543)"/><path d="m354.954 201.611c0-32.094 21.998-59.046 51.737-66.611-5.436-1.383-11.13-2.122-16.996-2.122-37.96 0-68.733 30.773-68.733 68.733 0 37.961 30.773 68.733 68.733 68.733 5.867 0 11.56-.739 16.996-2.122-29.739-7.565-51.737-34.518-51.737-66.611z" fill="#d3effb"/><ellipse cx="389.695" cy="201.611" fill="#3f6d8e" rx="20.392" ry="20.392" transform="matrix(.099 -.995 .995 .099 150.666 569.543)"/><path d="m387.97 201.611c0-7.895 4.495-14.729 11.059-18.117-2.799-1.445-5.967-2.275-9.333-2.275-11.262 0-20.392 9.13-20.392 20.392s9.13 20.392 20.392 20.392c3.367 0 6.535-.83 9.333-2.275-6.564-3.389-11.059-10.222-11.059-18.117z" fill="#365e7d"/></g><path d="m23.254 91.441h68.244c8.485 0 15.364-6.879 15.364-15.364v-68.244z" fill="#d3effb"/><path d="m106.862 7.833-83.608 83.608h33l50.608-50.608z" fill="#b1e4f9"/><path d="m76.263 144.45h68.244c8.485 0 15.364-6.879 15.364-15.364v-68.244z" fill="#d3effb"/><path d="m159.871 60.842-83.607 83.608h33l50.607-50.608z" fill="#b1e4f9"/></g><g><path d="m361.846 201.278c0 12.781 8.644 23.574 20.392 26.859v1.358c0 4.143 3.357 7.5 7.5 7.5s7.5-3.357 7.5-7.5v-1.358c11.748-3.285 20.393-14.078 20.393-26.859s-8.645-23.575-20.393-26.86v-19.592c0-4.143-3.357-7.5-7.5-7.5s-7.5 3.357-7.5 7.5v19.592c-11.748 3.285-20.392 14.079-20.392 26.86zm27.892-12.892c7.109 0 12.893 5.783 12.893 12.893 0 7.108-5.783 12.892-12.893 12.892-7.108 0-12.892-5.783-12.892-12.892 0-7.11 5.783-12.893 12.892-12.893z"/><path d="m177.124 201.647c0-8.678-7.061-15.738-15.738-15.738h-32.321c-8.678 0-15.738 7.061-15.738 15.738v32.322c0 8.678 7.061 15.737 15.738 15.737h32.321c8.678 0 15.738-7.06 15.738-15.737zm-15 32.323c0 .406-.331.737-.738.737h-32.321c-.407 0-.738-.331-.738-.737v-32.322c0-.407.331-.738.738-.738h32.321c.407 0 .738.331.738.738z"/><path d="m177.124 289.88c0-8.678-7.061-15.738-15.738-15.738h-32.321c-8.678 0-15.738 7.061-15.738 15.738v32.321c0 8.678 7.061 15.738 15.738 15.738h32.321c8.678 0 15.738-7.061 15.738-15.738zm-15 32.321c0 .407-.331.738-.738.738h-32.321c-.407 0-.738-.331-.738-.738v-32.321c0-.407.331-.738.738-.738h32.321c.407 0 .738.331.738.738z"/><path d="m161.385 362.374h-32.321c-8.678 0-15.738 7.061-15.738 15.738v32.321c0 8.678 7.061 15.738 15.738 15.738h32.321c8.678 0 15.738-7.061 15.738-15.738v-32.321c.001-8.677-7.06-15.738-15.738-15.738zm.739 48.06c0 .407-.331.738-.738.738h-32.321c-.407 0-.738-.331-.738-.738v-32.321c0-.407.331-.738.738-.738h32.321c.407 0 .738.331.738.738z"/><path d="m336.729 312.193h-134.107c-4.143 0-7.5 3.357-7.5 7.5s3.357 7.5 7.5 7.5h134.107c4.143 0 7.5-3.357 7.5-7.5s-3.357-7.5-7.5-7.5z"/><path d="m336.729 373.12h-134.107c-4.143 0-7.5 3.357-7.5 7.5s3.357 7.5 7.5 7.5h134.107c4.143 0 7.5-3.357 7.5-7.5s-3.357-7.5-7.5-7.5z"/><path d="m336.729 400.425h-134.107c-4.143 0-7.5 3.357-7.5 7.5s3.357 7.5 7.5 7.5h134.107c4.143 0 7.5-3.357 7.5-7.5s-3.357-7.5-7.5-7.5z"/><path d="m389.738 370.621c4.143 0 7.5-3.357 7.5-7.5v-55.647c55.218-3.862 98.965-50.014 98.965-106.196 0-56.183-43.747-102.335-98.965-106.197v-19.207c0-12.607-10.257-22.864-22.864-22.864h-30.145v-30.145c0-12.608-10.257-22.865-22.864-22.865h-214.459c-1.874 0-3.842.736-5.304 2.196l-83.608 83.609c-1.328 1.329-2.196 3.242-2.196 5.304v345.018c0 12.607 10.257 22.864 22.864 22.864h30.145v30.145c-.001 12.607 10.256 22.864 22.863 22.864h282.703c12.607 0 22.864-10.257 22.864-22.865v-91.014c0-4.143-3.357-7.5-7.5-7.5s-7.5 3.357-7.5 7.5v91.014c0 4.337-3.528 7.865-7.864 7.865h-282.703c-4.336 0-7.864-3.528-7.864-7.865 0-16.284 0-326.376 0-337.517h60.744c12.607 0 22.864-10.257 22.864-22.864v-60.744h206.959c4.336 0 7.864 3.528 7.864 7.864v19.201c-53.343 3.717-96.519 47.136-98.859 101.581h-80.757c-4.143 0-7.5 3.357-7.5 7.5s3.357 7.5 7.5 7.5h81.155c.365 3.823 1.033 8.167 1.934 12.305h-83.088c-4.143 0-7.5 3.357-7.5 7.5s3.357 7.5 7.5 7.5h87.542c6.92 18.176 18.649 34.019 33.739 45.928h-121.281c-4.143 0-7.5 3.357-7.5 7.5s3.357 7.5 7.5 7.5h134.107c2.488 0 4.686-1.216 6.05-3.081 12.613 6.184 25.887 9.727 39.458 10.672v55.641c.001 4.143 3.358 7.5 7.501 7.5zm-290.332-345.014v50.137c0 4.336-3.528 7.864-7.864 7.864h-50.138zm53.009 103.147c0 4.336-3.528 7.864-7.864 7.864h-50.138l58.002-58.002zm176.814-75.744h-169.314c-1.885 0-3.851.745-5.304 2.196l-83.608 83.608c-1.315 1.316-2.196 3.225-2.196 5.304v299.872h-30.145c-4.336 0-7.864-3.528-7.864-7.864v-337.518h60.744c12.607 0 22.864-10.257 22.864-22.864v-60.744h206.959c4.336 0 7.864 3.528 7.864 7.865zm-30.955 148.268c0-50.434 41.03-91.465 91.464-91.465s91.465 41.031 91.465 91.465-41.031 91.464-91.465 91.464-91.464-41.03-91.464-91.464z"/><path d="m465.971 201.278c0-34.627-23.369-64.947-56.829-73.732-3.996-1.053-8.106 1.343-9.158 5.35-1.052 4.006 1.343 8.106 5.35 9.158 26.871 7.056 45.638 31.409 45.638 59.225 0 33.765-27.469 61.233-61.233 61.233s-61.233-27.469-61.233-61.233c0-27.814 18.767-52.169 45.638-59.225 4.007-1.052 6.401-5.152 5.35-9.158s-5.152-6.407-9.158-5.35c-33.46 8.785-56.829 39.105-56.829 73.732 0 42.035 34.198 76.233 76.233 76.233s76.231-34.198 76.231-76.233z"/></g></g></svg>