<svg id="Capa_1" enable-background="new 0 0 512.004 512.004" height="100%" viewBox="0 0 512.004 512.004" width="100%" xmlns="http://www.w3.org/2000/svg"><g><g><path d="m317.317 440.665c-9.209-6.143-14.816-17.008-14.816-28.709v-29.277l-4.251-4.058h-80.5l-8.334 4.058v29.277c0 11.701-5.607 22.566-14.816 28.709l-20.634 13.764 4.284 3.941h156.25l3.451-3.941z" fill="#4a80aa"/><path d="m237.214 440.665c9.209-6.143 14.816-17.008 14.816-28.709v-29.277l8.334-4.058h-42.614l-8.334 4.058v29.277c0 11.701-5.607 22.566-14.816 28.709l-20.634 13.764 4.284 3.941h42.614l-4.284-3.941z" fill="#407093"/><g><path d="m475.641 27.044h-439.364c-15.891 0-28.82 12.928-28.82 28.82v297.995c0 15.891 12.928 28.82 28.82 28.82h439.364c15.891 0 28.82-12.928 28.82-28.82v-297.995c0-15.891-12.929-28.82-28.82-28.82z" fill="#3f6d8e"/></g><path d="m40.124 353.859v-297.995c0-15.891 12.928-28.82 28.82-28.82h-32.667c-15.891 0-28.82 12.928-28.82 28.82v297.995c0 15.891 12.928 28.82 28.82 28.82h32.667c-15.892-.001-28.82-12.929-28.82-28.82z" fill="#365e7d"/><path d="m468.75 91.12h-423l-7.097 4.209v252.007c0 2.291 1.856 4.146 4.147 4.146h30.146l6.304-5.028h176.708l6.531 5.028h206.628c2.29 0 4.147-1.856 4.147-4.146 0-130.805 0-120.162 0-252.007z" fill="#e4f6ff"/><path d="m233.772 239.522c-3.128-1.613-5.902-3.452-7.952-5.85-1.068-1.269-1.654-2.874-1.654-4.532v-43.218-.837c0-31.422-25.673-56.847-57.191-56.441-31.021.399-55.701 26.258-55.701 57.281v43.203c0 1.659-.593 3.263-1.673 4.522l-.018.021c-2.051 2.397-4.824 4.237-7.952 5.85-9.564 4.931-12.362 32.388 6.147 41.027l2.472 2.571h112.667l4.715-2.575c18.501-8.641 15.703-36.091 6.14-41.022z" fill="#b06c6c"/><path d="m125.131 239.522c3.128-1.613 5.902-3.452 7.952-5.85l.018-.021c1.08-1.259 1.673-2.864 1.673-4.522v-43.203c0-27.257 19.054-50.52 44.719-56.039-4.032-.856-8.218-1.297-12.518-1.242-31.021.399-55.701 26.258-55.701 57.281v43.203c0 1.659-.593 3.263-1.673 4.522l-.018.021c-2.051 2.397-4.824 4.237-7.952 5.85-9.564 4.931-12.362 32.388 6.147 41.027l2.472 2.571h23.5l-2.472-2.571c-18.509-8.638-15.711-36.095-6.147-41.027z" fill="#9d5e5e"/><path d="m72.946 351.482 6.304-5.028h4.438v-255.334h-37.938l-7.097 4.209v252.007c0 2.291 1.856 4.146 4.147 4.146z" fill="#d3effb"/><path d="m355.126 454.429h-198.335c-5.522 0-9.999 4.477-9.999 10v11.197c0 5.523 4.477 10 9.999 10h198.335c5.522 0 10-4.477 10-10v-11.197c0-5.523-4.477-10-10-10z" fill="#3f6d8e"/><path d="m189.406 475.625v-11.197c0-5.523 4.477-10 9.999-10h-42.614c-5.522 0-9.999 4.477-9.999 10v11.197c0 5.523 4.477 10 9.999 10h42.614c-5.522 0-9.999-4.477-9.999-10z" fill="#365e7d"/><g><path d="m242.429 286.276c-1.923-.745-30.208-11.699-44.202-17.119-6.618 9.462-17.582 15.672-29.98 15.672-13.708 0-24.589-6.4-31.059-15.682-13.504 5.235-43.729 16.953-44.181 17.128-8.577 3.53-20.061 14.635-20.061 31.115v34.091h189.543v-34.091c0-14.191-9.086-26.597-20.06-31.114z" fill="#b3e59f"/></g><path d="m83.688 58.24h-40.888c-2.29 0-4.146 1.856-4.146 4.146v32.942h45.035l1.811-1.458v-33.125z" fill="#dd636e"/><path d="m469.118 58.24h-385.43v37.088h389.577c0-17.359 0-29.451 0-32.942 0-2.29-1.857-4.146-4.147-4.146z" fill="#b1e4f9"/><path d="m136.13 269.558c6.303 10.136 17.638 17.272 32.117 17.272 13.082 0 24.575-6.907 31.042-17.26-4.732-1.833-8.084-3.131-8.691-3.366-1.421-.549-2.366-1.917-2.37-3.45l-.01-15.427c-5.76 3.932-12.689 6.234-20.126 6.209-8.087-.027-15.166-2.327-20.907-6.136v15.331c0 2.839-2.532 3.522-3.611 3.941-.194.075-3.108 1.205-7.444 2.886z" fill="#ffcebe"/><path d="m88.75 312.454c0-11.742 6.809-22.26 13.475-29.751-5.349 2.074-9.062 3.513-9.219 3.574-8.577 3.53-20.061 14.635-20.061 31.115v34.091h15.804c.001-11.997.001-27.205.001-39.029z" fill="#95d6a4"/><path d="m167.718 253.522c-7.929-.097-14.882-2.372-20.533-6.122v15.331c0 2.839-2.532 3.522-3.611 3.941-.194.075-3.108 1.205-7.444 2.886 6.225 10.011 17.365 17.082 31.588 17.255z" fill="#ffb1a0"/><path d="m200.055 194.375h-5.76c-1.143 0-1.229-.029-7.564-.566-8.784-.745-16.322-7.412-18.415-16.02-.067-.277-.311-.475-.596-.475s-.529.198-.596.475c-2.127 8.773-9.849 15.385-18.618 16.056.514-.039-6.482.53-7.726.53h-5.398c-2.286 0-4.138 1.853-4.138 4.138v22.068c0 18.888 14.877 36.142 37.358 35.954 19.773-.165 35.593-16.534 35.593-36.308v-21.714c-.002-2.285-1.855-4.138-4.14-4.138z" fill="#ffdecf"/><path d="m154.742 220.581v-28.267c-1.97.834-4.071 1.365-6.237 1.531.514-.039-6.482.53-7.726.53h-5.398c-2.286 0-4.138 1.853-4.138 4.138v22.068c0 18.888 14.877 36.142 37.358 35.954 3.853-.032 7.552-.687 11.017-1.855-15.336-4.917-24.876-18.979-24.876-34.099z" fill="#ffcebe"/></g><g><path d="m42.843 50.408c-6.422 0-11.646 5.225-11.646 11.646v284.949c0 6.422 5.225 11.646 11.646 11.646h426.318c6.422 0 11.646-5.225 11.646-11.646 0-12.676 0-260.121 0-284.949 0-6.422-5.225-11.646-11.646-11.646-17.637 0-408.642 0-426.318 0zm3.353 15h30.035v22.088h-30.035zm208.836 278.241h-19.429v-26.804c0-4.143-3.357-7.5-7.5-7.5s-7.5 3.357-7.5 7.5v26.804h-105.684v-26.804c0-4.143-3.357-7.5-7.5-7.5s-7.5 3.357-7.5 7.5v26.804h-19.43v-26.59c0-13.043 9.156-21.572 15.352-24.153.298-.116 37.497-14.538 37.679-14.608 16.928 20.211 50.229 21.717 68.457.006 19.926 7.717 31.526 12.208 37.708 14.603 7.639 3.179 15.348 12.477 15.348 24.152v26.59zm-24.654-97.793c3.501 1.805 6.703 18.765-3.335 26.069-11.677-4.523-25.654-9.936-31.274-12.112l-.005-6.034c10.363-8.573 15.973-21.15 15.973-33.884v-21.715c0-6.417-5.221-11.638-11.639-11.638-7.792 0-5.037.113-12.69-.54-5.474-.464-10.42-4.804-11.76-10.314-.887-3.655-4.13-6.208-7.886-6.208-3.741 0-6.983 2.541-7.886 6.208-1.258 5.193-5.858 9.816-12.028 10.356-7.578.634-6.636.498-12.424.498-6.418 0-11.639 5.221-11.639 11.638v22.068c0 13.27 6.072 25.59 15.943 33.609v5.945c-4.944 1.916-23.535 9.123-31.276 12.125-10.038-7.294-6.848-24.264-3.341-26.072 7.232-3.73 13.706-9 13.706-17.06v-43.203c0-27.107 21.666-49.439 48.298-49.782 27.258-.367 49.594 21.584 49.594 48.941v44.055c0 8.074 6.396 13.299 13.669 17.05zm-64.365 2.77c-16.14-1.036-27.228-13.724-27.228-28.378v-18.706c11.987 0 21.25-1.311 28.987-9.798 7.92 8.673 17.294 9.798 28.964 9.798v18.353c0 15.863-13.233 29.858-30.723 28.731zm20.777 23.723c-11.582 9.605-28.096 8.163-38.107-.06 4.334-2.339 6.046-5.817 6.046-10.536 8.175 2.454 17.477 2.7 26.042.098.003 5.052 2.318 8.582 6.019 10.498zm279.018 71.301h-195.776v-26.591c0-16.418-10.159-32.064-24.705-38.051-.049-.02-.097-.039-.146-.059-.322-.125-1.4-.542-3.009-1.165 11.145-14.89 7.484-38.865-4.92-45.261-2.624-1.354-4.402-2.605-5.544-3.89v-43.881c0-35.535-28.926-64.373-64.787-63.94-34.796.448-63.104 29.509-63.104 64.781v42.997c-1.176 1.326-2.955 2.58-5.58 3.934-12.454 6.42-16.025 30.439-4.915 45.27-1.814.703-2.91 1.128-2.993 1.161-.045.018-.09.035-.134.054-11.899 4.896-24.707 18.892-24.707 38.051v26.591h-19.292v-241.155h419.611v241.154zm0-256.154h-374.577v-22.088h374.576v22.088z"/><path d="m293.52 149.249h10.193c4.143 0 7.5-3.358 7.5-7.5s-3.357-7.5-7.5-7.5h-10.193c-4.143 0-7.5 3.358-7.5 7.5s3.357 7.5 7.5 7.5z"/><path d="m293.52 180.471h10.193c4.143 0 7.5-3.358 7.5-7.5s-3.357-7.5-7.5-7.5h-10.193c-4.143 0-7.5 3.358-7.5 7.5s3.357 7.5 7.5 7.5z"/><path d="m293.52 211.693h10.193c4.143 0 7.5-3.357 7.5-7.5s-3.357-7.5-7.5-7.5h-10.193c-4.143 0-7.5 3.357-7.5 7.5s3.357 7.5 7.5 7.5z"/><path d="m293.52 242.916h10.193c4.143 0 7.5-3.357 7.5-7.5s-3.357-7.5-7.5-7.5h-10.193c-4.143 0-7.5 3.357-7.5 7.5s3.357 7.5 7.5 7.5z"/><path d="m293.52 273.753h10.193c4.143 0 7.5-3.357 7.5-7.5s-3.357-7.5-7.5-7.5h-10.193c-4.143 0-7.5 3.357-7.5 7.5s3.357 7.5 7.5 7.5z"/><path d="m293.52 304.975h10.193c4.143 0 7.5-3.357 7.5-7.5s-3.357-7.5-7.5-7.5h-10.193c-4.143 0-7.5 3.357-7.5 7.5s3.357 7.5 7.5 7.5z"/><path d="m332.186 149.249h94.194c4.143 0 7.5-3.358 7.5-7.5s-3.357-7.5-7.5-7.5h-94.194c-4.143 0-7.5 3.358-7.5 7.5s3.357 7.5 7.5 7.5z"/><path d="m332.186 180.471h94.194c4.143 0 7.5-3.358 7.5-7.5s-3.357-7.5-7.5-7.5h-94.194c-4.143 0-7.5 3.358-7.5 7.5s3.357 7.5 7.5 7.5z"/><path d="m332.186 211.693h94.194c4.143 0 7.5-3.357 7.5-7.5s-3.357-7.5-7.5-7.5h-94.194c-4.143 0-7.5 3.357-7.5 7.5s3.357 7.5 7.5 7.5z"/><path d="m332.186 242.916h94.194c4.143 0 7.5-3.357 7.5-7.5s-3.357-7.5-7.5-7.5h-94.194c-4.143 0-7.5 3.357-7.5 7.5s3.357 7.5 7.5 7.5z"/><path d="m332.186 273.753h94.194c4.143 0 7.5-3.357 7.5-7.5s-3.357-7.5-7.5-7.5h-94.194c-4.143 0-7.5 3.357-7.5 7.5s3.357 7.5 7.5 7.5z"/><path d="m332.186 304.975h94.194c4.143 0 7.5-3.357 7.5-7.5s-3.357-7.5-7.5-7.5h-94.194c-4.143 0-7.5 3.357-7.5 7.5s3.357 7.5 7.5 7.5z"/><path d="m504.504 206.592c4.143 0 7.5-3.357 7.5-7.5v-143.561c0-20.027-16.293-36.32-36.32-36.32h-439.365c-20.026 0-36.319 16.293-36.319 36.32v297.995c0 20.027 16.293 36.32 36.319 36.32h165.64v21.776c0 9.138-4.397 17.747-11.478 22.47l-18.745 12.504h-14.903c-9.649 0-17.499 7.851-17.499 17.5v11.196c0 9.649 7.85 17.5 17.499 17.5h81.668c4.143 0 7.5-3.357 7.5-7.5s-3.357-7.5-7.5-7.5h-81.668c-1.378 0-2.499-1.121-2.499-2.5v-11.196c0-1.379 1.121-2.5 2.499-2.5h198.335c1.379 0 2.5 1.121 2.5 2.5v11.196c0 1.379-1.121 2.5-2.5 2.5h-81.667c-4.143 0-7.5 3.357-7.5 7.5s3.357 7.5 7.5 7.5h81.667c9.649 0 17.5-7.851 17.5-17.5v-11.196c0-9.649-7.851-17.5-17.5-17.5h-14.902l-18.745-12.504c-7.08-4.723-11.479-13.332-11.479-22.47v-21.776h165.64c20.027 0 36.32-16.293 36.32-36.32v-119.434c0-4.143-3.357-7.5-7.5-7.5s-7.5 3.357-7.5 7.5v119.434c0 11.756-9.564 21.32-21.32 21.32-10.818 0-430.691 0-439.364 0-11.756 0-21.319-9.564-21.319-21.32v-297.995c0-11.756 9.563-21.32 21.319-21.32h439.364c11.756 0 21.32 9.564 21.32 21.32v143.561c.002 4.143 3.359 7.5 7.502 7.5zm-287.545 205.031v-21.776h78.085v21.776c0 14.301 6.787 27.366 18.154 34.948l.038.025h-114.468l.038-.025c11.367-7.582 18.153-20.647 18.153-34.948z"/></g></g></svg>