<svg id="Capa_1" enable-background="new 0 0 512.003 512.003" height="100%" viewBox="0 0 512.003 512.003" width="100%" xmlns="http://www.w3.org/2000/svg"><g><g><g><path d="m317.317 440.664c-9.209-6.143-14.816-17.008-14.816-28.709v-29.277l-4.251-4.058h-80.5l-8.334 4.058v29.277c0 11.701-5.607 22.566-14.816 28.709l-20.634 13.764 4.284 3.941h156.25l3.451-3.941z" fill="#4a80aa"/><path d="m237.214 440.664c9.209-6.143 14.816-17.008 14.816-28.709v-29.277l8.334-4.058h-42.614l-8.334 4.058v29.277c0 11.701-5.607 22.566-14.816 28.709l-20.634 13.764 4.284 3.941h42.614l-4.284-3.941z" fill="#407093"/><g><path d="m475.64 27.044h-439.364c-15.891 0-28.82 12.928-28.82 28.82v297.995c0 15.891 12.928 28.82 28.82 28.82h439.364c15.892 0 28.82-12.928 28.82-28.82v-297.995c0-15.892-12.928-28.82-28.82-28.82z" fill="#3f6d8e"/></g><path d="m40.123 353.858v-297.994c0-15.891 12.928-28.82 28.82-28.82h-32.667c-15.891 0-28.82 12.928-28.82 28.82v297.995c0 15.891 12.928 28.82 28.82 28.82h32.667c-15.892-.001-28.82-12.929-28.82-28.821z" fill="#365e7d"/><path d="m468.75 91.12h-423l-7.097 4.209v252.007c0 2.291 1.856 4.146 4.147 4.146h426.318c2.29 0 4.147-1.856 4.147-4.146 0-130.805 0-120.162 0-252.007z" fill="#e4f6ff"/><path d="m83.687 347.335v-256.215h-37.937l-7.097 4.209v252.007c0 2.291 1.856 4.146 4.147 4.146h45.035c-2.291 0-4.148-1.856-4.148-4.147z" fill="#d3effb"/><path d="m355.126 454.429h-198.335c-5.522 0-9.999 4.477-9.999 10v11.197c0 5.523 4.477 10 9.999 10h198.335c5.522 0 10-4.477 10-10v-11.197c-.001-5.524-4.478-10-10-10z" fill="#3f6d8e"/><path d="m189.406 475.625v-11.197c0-5.523 4.477-10 9.999-10h-42.614c-5.522 0-9.999 4.477-9.999 10v11.197c0 5.523 4.477 10 9.999 10h42.614c-5.522-.001-9.999-4.477-9.999-10z" fill="#365e7d"/><path d="m83.687 58.24h-40.888c-2.29 0-4.146 1.856-4.146 4.146v32.942h45.035l1.812-1.458v-33.125z" fill="#dd636e"/><path d="m469.117 58.24h-385.43v37.088h389.577c0-17.359 0-29.451 0-32.942 0-2.29-1.857-4.146-4.147-4.146z" fill="#b1e4f9"/></g><path d="m309.761 300.632v-75.962c0-1.235-1.001-2.237-2.237-2.237h-25.163c-1.235 0-2.237 1.001-2.237 2.237v75.962z" fill="#dd636e"/><path d="m369.034 300.632v-103.464c0-1.235-1.001-2.237-2.237-2.237h-25.163c-1.235 0-2.237 1.001-2.237 2.237v103.464z" fill="#ffaa5b"/><path d="m428.308 300.632v-130.966c0-1.235-1.001-2.237-2.237-2.237h-25.163c-1.235 0-2.237 1.001-2.237 2.237v130.966z" fill="#b3e59f"/><path d="m299.194 222.434h-16.833c-1.235 0-2.237 1.001-2.237 2.237v75.962h16.833v-75.962c0-1.236 1.002-2.237 2.237-2.237z" fill="#da4a54"/><path d="m358.468 194.932h-16.833c-1.235 0-2.237 1.001-2.237 2.237v103.464h16.833v-103.465c0-1.235 1.001-2.236 2.237-2.236z" fill="#ff9838"/><path d="m417.741 167.429h-16.833c-1.235 0-2.237 1.001-2.237 2.237v130.966h16.833v-130.966c0-1.235 1.002-2.237 2.237-2.237z" fill="#95d6a4"/><path d="m87.427 151.7h137.093v148.933h-137.093z" fill="#3f6d8e"/><path d="m87.427 151.7h36.838v148.933h-36.838z" fill="#365e7d"/><path d="m155.974 238.878h-28.936c-2.656 0-4.809 2.153-4.809 4.809v56.945h33.744l1.667-2.433v-57.5z" fill="#d3effb"/><path d="m136.64 197.861c-10.678 0-19.333-8.656-19.333-19.333v-40h38.667v40c0 10.677-8.656 19.333-19.334 19.333z" fill="#ffaa5b"/><path d="m155.974 138.528v40c0 10.677 8.656 19.333 19.333 19.333 10.677 0 19.333-8.656 19.333-19.333v-40z" fill="#dd636e"/><path d="m78.64 146.034v32.494c0 10.677 8.656 19.333 19.333 19.333 10.677 0 19.333-8.656 19.333-19.333v-40h-31.16c-4.145 0-7.506 3.36-7.506 7.506z" fill="#dd636e"/><path d="m225.801 138.528h-31.161v40c0 10.677 8.656 19.333 19.333 19.333 10.677 0 19.333-8.656 19.333-19.333v-32.494c.001-4.146-3.359-7.506-7.505-7.506z" fill="#ffaa5b"/><path d="m135.14 178.528v-40h-17.833v40c0 10.677 8.656 19.333 19.333 19.333 3.219 0 6.247-.798 8.917-2.189-6.186-3.225-10.417-9.686-10.417-17.144z" fill="#ff9838"/><path d="m173.807 178.528v-40h-17.833v40c0 10.677 8.656 19.333 19.333 19.333 3.219 0 6.247-.798 8.917-2.19-6.186-3.224-10.417-9.685-10.417-17.143z" fill="#da4a54"/><path d="m96.474 178.528v-40h-10.328c-4.146 0-7.506 3.36-7.506 7.506v32.494c0 10.677 8.656 19.333 19.333 19.333 3.219 0 6.247-.798 8.917-2.19-6.186-3.224-10.416-9.685-10.416-17.143z" fill="#da4a54"/><path d="m212.474 178.528v-40h-17.834v40c0 10.677 8.656 19.333 19.333 19.333 3.219 0 6.247-.798 8.917-2.19-6.186-3.224-10.416-9.685-10.416-17.143z" fill="#ff9838"/><path d="m184.909 238.878h-28.935v61.754h33.744v-56.945c0-2.655-2.153-4.809-4.809-4.809z" fill="#e4f6ff"/></g><g><path d="m475.684 19.211h-439.365c-20.026 0-36.319 16.293-36.319 36.32v297.995c0 20.026 16.293 36.319 36.319 36.319h165.64v21.777c0 9.138-4.398 17.747-11.479 22.47l-18.744 12.504h-14.903c-9.649 0-17.499 7.85-17.499 17.499v11.197c0 9.649 7.85 17.499 17.499 17.499h81.667c4.143 0 7.5-3.357 7.5-7.5s-3.357-7.5-7.5-7.5h-81.667c-1.378 0-2.499-1.121-2.499-2.499v-11.197c0-1.378 1.121-2.499 2.499-2.499h17.175 163.985 17.175c1.378 0 2.499 1.121 2.499 2.499v11.197c0 1.378-1.121 2.499-2.499 2.499h-81.668c-4.143 0-7.5 3.357-7.5 7.5s3.357 7.5 7.5 7.5h81.668c9.649 0 17.499-7.85 17.499-17.499v-11.197c0-9.649-7.85-17.499-17.499-17.499h-14.903l-18.745-12.504c-7.08-4.723-11.478-13.333-11.478-22.47v-21.777h165.64c20.026 0 36.319-16.293 36.319-36.319v-297.995c.002-20.027-16.291-36.32-36.317-36.32zm-162.487 427.36.038.025h-114.468l.038-.025c11.367-7.582 18.154-20.647 18.154-34.948v-21.777h78.085v21.777c0 14.3 6.786 27.365 18.153 34.948zm183.806-93.045c0 11.756-9.563 21.319-21.319 21.319-11.908 0-427.915 0-439.364 0-11.756 0-21.319-9.563-21.319-21.319v-297.995c0-11.756 9.563-21.319 21.319-21.319h439.364c11.756 0 21.319 9.563 21.319 21.319z"/><path d="m480.807 62.053c0-6.422-5.225-11.646-11.646-11.646-17.638 0-408.642 0-426.318 0-6.422 0-11.646 5.225-11.646 11.646v284.949c0 6.422 5.225 11.646 11.647 11.646h426.316c6.423 0 11.647-5.225 11.647-11.646.001-8.26 0-266.548 0-284.949zm-389.577 3.354h374.576v22.089h-374.576zm-45.035 0h30.035v22.089h-30.035zm419.613 278.242h-419.613v-241.153h419.612v241.153z"/><path d="m71.184 145.701v32.494c0 7.854 3.392 14.93 8.787 19.841v94.763h-1.287c-4.143 0-7.5 3.357-7.5 7.5s3.357 7.5 7.5 7.5h154.667c4.143 0 7.5-3.357 7.5-7.5s-3.357-7.5-7.5-7.5h-1.287v-94.763c5.395-4.912 8.787-11.988 8.787-19.842v-32.494c0-8.274-6.731-15.006-15.006-15.006-5.06 0-134.789 0-139.655 0-8.275.001-15.006 6.732-15.006 15.007zm77.334 147.098h-18.745v-46.754h18.745zm33.743 0h-18.743v-46.754h18.743zm19.923-147.104h23.661l.006 32.5c0 6.634-5.457 11.834-11.834 11.834-6.524 0-11.833-5.309-11.833-11.834zm-38.666 32.5v-32.5h23.666v32.5c0 6.525-5.309 11.834-11.833 11.834-6.52 0-11.825-5.302-11.833-11.821zm-38.667-32.5h23.666v32.5.001c0 6.462-5.294 11.832-11.833 11.832-6.524 0-11.833-5.309-11.833-11.833zm-7.5 51.09c10.624 11.031 28.14 10.935 38.667 0 10.539 10.962 28.12 10.993 38.666 0 5.642 5.87 13.832 9.033 22.38 8.071v87.943h-19.803v-49.444c0-6.787-5.521-12.31-12.309-12.31-6.128 0-51.737 0-57.87 0-6.787 0-12.31 5.522-12.31 12.31v49.444h-19.801v-87.943c8.098.914 16.412-1.876 22.38-8.071zm-31.167-51.084.006-.006h23.661v32.5c-.001 7.022-6.142 12.595-13.233 11.744-5.889-.699-10.434-5.73-10.434-11.744z"/><path d="m272.637 307.799h163.25c4.143 0 7.5-3.357 7.5-7.5s-3.357-7.5-7.5-7.5h-.036v-36.754c0-4.143-3.357-7.5-7.5-7.5s-7.5 3.357-7.5 7.5v36.754h-14.637v-118.202h14.637v46.448c0 4.143 3.357 7.5 7.5 7.5s7.5-3.357 7.5-7.5v-51.712c0-5.368-4.368-9.736-9.736-9.736h-25.163c-5.369 0-9.737 4.368-9.737 9.736v123.466h-14.637v-95.964c0-5.368-4.368-9.736-9.736-9.736h-25.163c-5.369 0-9.737 4.368-9.737 9.736v95.964h-14.637v-68.461c0-5.369-4.368-9.737-9.736-9.737h-25.163c-5.369 0-9.737 4.368-9.737 9.737v68.461h-.03c-4.143 0-7.5 3.357-7.5 7.5s3.355 7.5 7.498 7.5zm74.303-105.7h14.637v90.7h-14.637zm-59.273 27.502h14.637v63.198h-14.637z"/></g></g></svg>