<svg id="Capa_1" enable-background="new 0 0 512 512" height="100%" viewBox="0 0 512 512" width="100%" xmlns="http://www.w3.org/2000/svg"><g><g><path d="m458.916 149.691h-407.334l-12.299 12.193v328.231c0 8.128 6.589 14.717 14.717 14.717h403.913c8.128 0 14.717-6.589 14.717-14.717v-328.231z" fill="#e4f6ff"/><path d="m85.284 490.115v-328.231l12.299-12.193h-46l-12.299 12.193v328.231c0 8.128 6.589 14.717 14.717 14.717h46c-8.129 0-14.717-6.589-14.717-14.717z" fill="#d3effb"/><path d="m423.494 195.567h-34.652c-3.516 0-6.366 2.85-6.366 6.366v34.652c0 3.516 2.85 6.366 6.366 6.366h34.652c3.516 0 6.366-2.85 6.366-6.366v-34.652c0-3.516-2.85-6.366-6.366-6.366z" fill="#b3e59f"/><path d="m348.389 195.567h-34.652c-3.516 0-6.365 2.85-6.365 6.366v34.652c0 3.516 2.85 6.366 6.365 6.366h34.652c3.515 0 6.365-2.85 6.365-6.366v-34.652c0-3.516-2.85-6.366-6.365-6.366z" fill="#b3e59f"/><path d="m273.283 195.567h-34.652c-3.515 0-6.365 2.85-6.365 6.366v34.652c0 3.516 2.85 6.366 6.365 6.366h34.652c3.515 0 6.365-2.85 6.365-6.366v-34.652c.001-3.516-2.849-6.366-6.365-6.366z" fill="#b3e59f"/><g fill="#b1e4f9"><path d="m123.072 271.633h-34.652c-3.516 0-6.366 2.85-6.366 6.366v34.652c0 3.516 2.85 6.366 6.366 6.366h34.652c3.516 0 6.366-2.85 6.366-6.366v-34.652c0-3.516-2.85-6.366-6.366-6.366z"/><path d="m423.494 271.633h-34.652c-3.516 0-6.366 2.85-6.366 6.366v34.652c0 3.516 2.85 6.366 6.366 6.366h34.652c3.516 0 6.366-2.85 6.366-6.366v-34.652c0-3.516-2.85-6.366-6.366-6.366z"/><path d="m348.389 271.633h-34.652c-3.516 0-6.365 2.85-6.365 6.366v34.652c0 3.516 2.85 6.366 6.365 6.366h34.652c3.515 0 6.365-2.85 6.365-6.366v-34.652c0-3.516-2.85-6.366-6.365-6.366z"/><path d="m273.283 271.633h-34.652c-3.515 0-6.365 2.85-6.365 6.366v34.652c0 3.516 2.85 6.366 6.365 6.366h34.652c3.515 0 6.365-2.85 6.365-6.366v-34.652c.001-3.516-2.849-6.366-6.365-6.366z"/><path d="m198.178 271.633h-34.652c-3.515 0-6.365 2.85-6.365 6.366v34.652c0 3.516 2.85 6.366 6.365 6.366h34.652c3.516 0 6.365-2.85 6.365-6.366v-34.652c0-3.516-2.85-6.366-6.365-6.366z"/><path d="m123.072 347.7h-34.652c-3.516 0-6.366 2.85-6.366 6.366v34.652c0 3.516 2.85 6.366 6.366 6.366h34.652c3.516 0 6.366-2.85 6.366-6.366v-34.652c0-3.517-2.85-6.366-6.366-6.366z"/><path d="m423.494 347.7h-34.652c-3.516 0-6.366 2.85-6.366 6.366v34.652c0 3.516 2.85 6.366 6.366 6.366h34.652c3.516 0 6.366-2.85 6.366-6.366v-34.652c0-3.517-2.85-6.366-6.366-6.366z"/><path d="m348.389 347.7h-34.652c-3.516 0-6.365 2.85-6.365 6.366v34.652c0 3.516 2.85 6.366 6.365 6.366h34.652c3.515 0 6.365-2.85 6.365-6.366v-34.652c0-3.517-2.85-6.366-6.365-6.366z"/><path d="m273.283 347.7h-34.652c-3.515 0-6.365 2.85-6.365 6.366v34.652c0 3.516 2.85 6.366 6.365 6.366h34.652c3.515 0 6.365-2.85 6.365-6.366v-34.652c.001-3.517-2.849-6.366-6.365-6.366z"/><path d="m198.178 347.7h-34.652c-3.515 0-6.365 2.85-6.365 6.366v34.652c0 3.516 2.85 6.366 6.365 6.366h34.652c3.516 0 6.365-2.85 6.365-6.366v-34.652c0-3.517-2.85-6.366-6.365-6.366z"/><path d="m123.072 423.766h-34.652c-3.516 0-6.366 2.85-6.366 6.366v34.652c0 3.516 2.85 6.366 6.366 6.366h34.652c3.516 0 6.366-2.85 6.366-6.366v-34.652c0-3.516-2.85-6.366-6.366-6.366z"/><path d="m273.283 423.766h-34.652c-3.515 0-6.365 2.85-6.365 6.366v34.652c0 3.516 2.85 6.366 6.365 6.366h34.652c3.515 0 6.365-2.85 6.365-6.366v-34.652c.001-3.516-2.849-6.366-6.365-6.366z"/><path d="m198.178 423.766h-34.652c-3.515 0-6.365 2.85-6.365 6.366v34.652c0 3.516 2.85 6.366 6.365 6.366h34.652c3.516 0 6.365-2.85 6.365-6.366v-34.652c0-3.516-2.85-6.366-6.365-6.366z"/></g><path d="m406.168 236.585v-34.652c0-3.516 2.85-6.366 6.366-6.366h-23.692c-3.516 0-6.366 2.85-6.366 6.366v34.652c0 3.516 2.85 6.366 6.366 6.366h23.692c-3.516 0-6.366-2.85-6.366-6.366z" fill="#95d6a4"/><path d="m331.063 236.585v-34.652c0-3.516 2.85-6.366 6.365-6.366h-23.692c-3.516 0-6.365 2.85-6.365 6.366v34.652c0 3.516 2.85 6.366 6.365 6.366h23.692c-3.516 0-6.365-2.85-6.365-6.366z" fill="#95d6a4"/><path d="m255.957 236.585v-34.652c0-3.516 2.85-6.366 6.365-6.366h-23.692c-3.515 0-6.365 2.85-6.365 6.366v34.652c0 3.516 2.85 6.366 6.365 6.366h23.692c-3.515 0-6.365-2.85-6.365-6.366z" fill="#95d6a4"/><path d="m105.746 312.651v-34.652c0-3.516 2.85-6.366 6.366-6.366h-23.692c-3.516 0-6.366 2.85-6.366 6.366v34.652c0 3.516 2.85 6.366 6.366 6.366h23.692c-3.516 0-6.366-2.85-6.366-6.366z" fill="#90d8f9"/><path d="m406.168 312.651v-34.652c0-3.516 2.85-6.366 6.366-6.366h-23.692c-3.516 0-6.366 2.85-6.366 6.366v34.652c0 3.516 2.85 6.366 6.366 6.366h23.692c-3.516 0-6.366-2.85-6.366-6.366z" fill="#90d8f9"/><path d="m331.063 312.651v-34.652c0-3.516 2.85-6.366 6.365-6.366h-23.692c-3.516 0-6.365 2.85-6.365 6.366v34.652c0 3.516 2.85 6.366 6.365 6.366h23.692c-3.516 0-6.365-2.85-6.365-6.366z" fill="#90d8f9"/><path d="m255.957 312.651v-34.652c0-3.516 2.85-6.366 6.365-6.366h-23.692c-3.515 0-6.365 2.85-6.365 6.366v34.652c0 3.516 2.85 6.366 6.365 6.366h23.692c-3.515 0-6.365-2.85-6.365-6.366z" fill="#90d8f9"/><path d="m180.851 312.651v-34.652c0-3.516 2.85-6.366 6.365-6.366h-23.692c-3.516 0-6.365 2.85-6.365 6.366v34.652c0 3.516 2.85 6.366 6.365 6.366h23.692c-3.514 0-6.365-2.85-6.365-6.366z" fill="#90d8f9"/><path d="m105.746 388.717v-34.652c0-3.516 2.85-6.366 6.366-6.366h-23.692c-3.516 0-6.366 2.85-6.366 6.366v34.652c0 3.516 2.85 6.366 6.366 6.366h23.692c-3.516 0-6.366-2.85-6.366-6.366z" fill="#90d8f9"/><path d="m406.168 388.717v-34.652c0-3.516 2.85-6.366 6.366-6.366h-23.692c-3.516 0-6.366 2.85-6.366 6.366v34.652c0 3.516 2.85 6.366 6.366 6.366h23.692c-3.516 0-6.366-2.85-6.366-6.366z" fill="#90d8f9"/><path d="m331.063 388.717v-34.652c0-3.516 2.85-6.366 6.365-6.366h-23.692c-3.516 0-6.365 2.85-6.365 6.366v34.652c0 3.516 2.85 6.366 6.365 6.366h23.692c-3.516 0-6.365-2.85-6.365-6.366z" fill="#90d8f9"/><path d="m255.957 388.717v-34.652c0-3.516 2.85-6.366 6.365-6.366h-23.692c-3.515 0-6.365 2.85-6.365 6.366v34.652c0 3.516 2.85 6.366 6.365 6.366h23.692c-3.515 0-6.365-2.85-6.365-6.366z" fill="#90d8f9"/><path d="m180.851 388.717v-34.652c0-3.516 2.85-6.366 6.365-6.366h-23.692c-3.516 0-6.365 2.85-6.365 6.366v34.652c0 3.516 2.85 6.366 6.365 6.366h23.692c-3.514 0-6.365-2.85-6.365-6.366z" fill="#90d8f9"/><path d="m105.746 464.784v-34.652c0-3.516 2.85-6.366 6.366-6.366h-23.692c-3.516 0-6.366 2.85-6.366 6.366v34.652c0 3.516 2.85 6.365 6.366 6.365h23.692c-3.516 0-6.366-2.85-6.366-6.365z" fill="#90d8f9"/><path d="m255.957 464.784v-34.652c0-3.516 2.85-6.366 6.365-6.366h-23.692c-3.515 0-6.365 2.85-6.365 6.366v34.652c0 3.516 2.85 6.365 6.365 6.365h23.692c-3.515 0-6.365-2.85-6.365-6.365z" fill="#90d8f9"/><path d="m180.851 464.784v-34.652c0-3.516 2.85-6.366 6.365-6.366h-23.692c-3.516 0-6.365 2.85-6.365 6.366v34.652c0 3.516 2.85 6.365 6.365 6.365h23.692c-3.514 0-6.365-2.85-6.365-6.365z" fill="#90d8f9"/><path d="m457.914 54.269h-16.468l-7.697 7.175h-16.667l-7.432-7.175h-31.795l-7.731 6.339h-16.5l-7.564-6.339h-180.205l-7.481 5.214h-17.5l-6.814-5.214h-31.795l-7.515 3.089h-20.5l-3.78-3.089h-16.469c-8.128 0-14.717 6.589-14.717 14.717v92.898h433.346v-92.898c0-8.128-6.588-14.717-14.716-14.717z" fill="#dd636e"/><g><path d="m91.003 57.358h-16.754l-3.78-3.089h-16.468c-8.128 0-14.717 6.589-14.717 14.717v92.898h46v-92.898c0-4.735 2.245-8.936 5.719-11.628z" fill="#da4a54"/></g><path d="m371.31 7.833h-18.705c-3.615 0-6.545 2.93-6.545 6.545v59.516c0 3.615 2.93 6.545 6.545 6.545h18.705c3.615 0 6.545-2.93 6.545-6.545v-59.516c0-3.615-2.931-6.545-6.545-6.545z" fill="#ffe07d"/><path d="m434.9 7.833h-18.705c-3.615 0-6.545 2.93-6.545 6.545v59.516c0 3.615 2.93 6.545 6.545 6.545h18.705c3.615 0 6.545-2.93 6.545-6.545v-59.516c.001-3.615-2.93-6.545-6.545-6.545z" fill="#ffe07d"/><path d="m95.719 7.833h-18.705c-3.615 0-6.545 2.93-6.545 6.545v59.516c0 3.615 2.93 6.545 6.545 6.545h18.705c3.615 0 6.545-2.93 6.545-6.545v-59.516c0-3.615-2.93-6.545-6.545-6.545z" fill="#ffe07d"/><path d="m159.31 7.833h-18.705c-3.615 0-6.545 2.93-6.545 6.545v59.516c0 3.615 2.93 6.545 6.545 6.545h18.705c3.615 0 6.545-2.93 6.545-6.545v-59.516c0-3.615-2.931-6.545-6.545-6.545z" fill="#ffe07d"/><path d="m361.957 73.894v-59.516c0-3.615 2.93-6.545 6.545-6.545h-15.898c-3.615 0-6.545 2.93-6.545 6.545v59.516c0 3.615 2.93 6.545 6.545 6.545h15.898c-3.614 0-6.545-2.93-6.545-6.545z" fill="#ffd064"/><path d="m425.548 73.894v-59.516c0-3.615 2.93-6.545 6.545-6.545h-15.898c-3.615 0-6.545 2.93-6.545 6.545v59.516c0 3.615 2.93 6.545 6.545 6.545h15.898c-3.615 0-6.545-2.93-6.545-6.545z" fill="#ffd064"/><path d="m86.366 73.894v-59.516c0-3.615 2.93-6.545 6.545-6.545h-15.897c-3.615 0-6.545 2.93-6.545 6.545v59.516c0 3.615 2.93 6.545 6.545 6.545h15.898c-3.615 0-6.546-2.93-6.546-6.545z" fill="#ffd064"/><path d="m149.957 73.894v-59.516c0-3.615 2.93-6.545 6.545-6.545h-15.898c-3.615 0-6.545 2.93-6.545 6.545v59.516c0 3.615 2.93 6.545 6.545 6.545h15.898c-3.614 0-6.545-2.93-6.545-6.545z" fill="#ffd064"/><path d="m318.745 92.179h-125.576c-3.615 0-6.545 2.93-6.545 6.545v18.705c0 3.615 2.93 6.545 6.545 6.545h125.577c3.615 0 6.545-2.93 6.545-6.545v-18.705c-.001-3.615-2.931-6.545-6.546-6.545z" fill="#da4a54"/><path d="m232.266 117.429v-18.705c0-3.615 2.93-6.545 6.545-6.545h-45.642c-3.615 0-6.545 2.93-6.545 6.545v18.705c0 3.615 2.93 6.545 6.545 6.545h45.642c-3.615 0-6.545-2.93-6.545-6.545z" fill="#d82e3d"/></g><g><path d="m437.403 201.601c0-7.646-6.22-13.866-13.865-13.866h-34.652c-7.646 0-13.866 6.221-13.866 13.866v34.652c0 7.646 6.221 13.865 13.866 13.865h34.652c7.646 0 13.865-6.22 13.865-13.865zm-15 33.517h-32.384v-32.384h32.384z"/><path d="m362.297 201.601c0-7.646-6.22-13.866-13.865-13.866h-34.652c-7.646 0-13.866 6.221-13.866 13.866v34.652c0 7.646 6.221 13.865 13.866 13.865h34.652c7.646 0 13.865-6.22 13.865-13.865zm-15 33.517h-32.384v-32.384h32.384z"/><path d="m287.192 201.601c0-7.646-6.22-13.866-13.865-13.866h-34.652c-7.646 0-13.866 6.221-13.866 13.866v34.652c0 7.646 6.221 13.865 13.866 13.865h34.652c7.646 0 13.865-6.22 13.865-13.865zm-15 33.517h-32.384v-32.384h32.384z"/><path d="m136.981 277.666c0-7.646-6.221-13.865-13.866-13.865h-34.653c-7.646 0-13.865 6.22-13.865 13.865v34.652c0 7.646 6.22 13.866 13.865 13.866h34.652c7.646 0 13.866-6.221 13.866-13.866v-34.652zm-15 33.519h-32.384v-32.384h32.384z"/><path d="m437.403 277.666c0-7.646-6.22-13.865-13.865-13.865h-34.652c-7.646 0-13.866 6.22-13.866 13.865v34.652c0 7.646 6.221 13.866 13.866 13.866h34.652c7.646 0 13.865-6.221 13.865-13.866zm-15 33.519h-32.384v-32.384h32.384z"/><path d="m362.297 277.666c0-7.646-6.22-13.865-13.865-13.865h-34.652c-7.646 0-13.866 6.22-13.866 13.865v34.652c0 7.646 6.221 13.866 13.866 13.866h34.652c7.646 0 13.865-6.221 13.865-13.866zm-15 33.519h-32.384v-32.384h32.384z"/><path d="m287.192 277.666c0-7.646-6.22-13.865-13.865-13.865h-34.652c-7.646 0-13.866 6.22-13.866 13.865v34.652c0 7.646 6.221 13.866 13.866 13.866h34.652c7.646 0 13.865-6.221 13.865-13.866zm-15 33.519h-32.384v-32.384h32.384z"/><path d="m212.086 277.666c0-7.646-6.22-13.865-13.865-13.865h-34.653c-7.646 0-13.865 6.22-13.865 13.865v34.652c0 7.646 6.22 13.866 13.865 13.866h34.653c7.646 0 13.865-6.221 13.865-13.866zm-15 33.519h-32.384v-32.384h32.384z"/><path d="m136.981 353.732c0-7.646-6.221-13.865-13.866-13.865h-34.653c-7.646 0-13.865 6.22-13.865 13.865v34.652c0 7.646 6.22 13.865 13.865 13.865h34.652c7.646 0 13.866-6.22 13.866-13.865v-34.652zm-15 33.518h-32.384v-32.383h32.384z"/><path d="m423.538 339.867h-34.652c-7.646 0-13.866 6.22-13.866 13.865v34.652c0 7.646 6.221 13.865 13.866 13.865h34.652c7.646 0 13.865-6.22 13.865-13.865v-34.652c0-7.645-6.22-13.865-13.865-13.865zm-1.135 47.383h-32.384v-32.383h32.384z"/><path d="m348.432 339.867h-34.652c-7.646 0-13.866 6.22-13.866 13.865v34.652c0 7.646 6.221 13.865 13.866 13.865h34.652c7.646 0 13.865-6.22 13.865-13.865v-34.652c0-7.645-6.219-13.865-13.865-13.865zm-1.135 47.383h-32.384v-32.383h32.384z"/><path d="m287.192 353.732c0-7.646-6.22-13.865-13.865-13.865h-34.652c-7.646 0-13.866 6.22-13.866 13.865v34.652c0 7.646 6.221 13.865 13.866 13.865h34.652c7.646 0 13.865-6.22 13.865-13.865zm-15 33.518h-32.384v-32.383h32.384z"/><path d="m212.086 353.732c0-7.646-6.22-13.865-13.865-13.865h-34.653c-7.646 0-13.865 6.22-13.865 13.865v34.652c0 7.646 6.22 13.865 13.865 13.865h34.653c7.646 0 13.865-6.22 13.865-13.865zm-15 33.518h-32.384v-32.383h32.384z"/><path d="m123.115 415.933h-34.653c-7.646 0-13.865 6.221-13.865 13.866v34.652c0 7.646 6.22 13.865 13.865 13.865h34.652c7.646 0 13.866-6.22 13.866-13.865v-34.652c.001-7.646-6.22-13.866-13.865-13.866zm-1.134 47.383h-32.384v-32.384h32.384z"/><path d="m273.327 415.933h-34.652c-7.646 0-13.866 6.221-13.866 13.866v34.652c0 7.646 6.221 13.865 13.866 13.865h34.652c7.646 0 13.865-6.22 13.865-13.865v-34.652c0-7.646-6.22-13.866-13.865-13.866zm-1.135 47.383h-32.384v-32.384h32.384z"/><path d="m198.221 415.933h-34.653c-7.646 0-13.865 6.221-13.865 13.866v34.652c0 7.646 6.22 13.865 13.865 13.865h34.653c7.646 0 13.865-6.22 13.865-13.865v-34.652c0-7.646-6.219-13.866-13.865-13.866zm-1.135 47.383h-32.384v-32.384h32.384z"/><path d="m472.673 323.367c4.143 0 7.5-3.357 7.5-7.5 0-12.439 0-237.511 0-247.214 0-12.25-9.967-22.217-22.217-22.217h-8.968v-32.391c.001-7.744-6.3-14.045-14.044-14.045h-18.705c-7.745 0-14.046 6.301-14.046 14.045v32.392h-16.795v-32.392c0-7.744-6.301-14.045-14.045-14.045h-18.705c-7.745 0-14.046 6.301-14.046 14.045v32.392h-165.204v-32.392c0-7.744-6.301-14.045-14.045-14.045h-18.705c-7.745 0-14.046 6.301-14.046 14.045v32.392h-16.795v-32.392c0-7.744-6.301-14.045-14.045-14.045h-18.705c-7.745 0-14.046 6.301-14.046 14.045v32.392h-8.968c-12.25 0-22.217 9.967-22.217 22.217v421.129c0 12.251 9.967 22.218 22.217 22.218h403.913c12.25 0 22.217-9.967 22.217-22.218v-138.916c0-4.143-3.357-7.5-7.5-7.5s-7.5 3.357-7.5 7.5v138.915c0 3.979-3.237 7.218-7.217 7.218h-403.913c-3.979 0-7.217-3.238-7.217-7.218v-320.73h418.347v146.815c0 4.143 3.358 7.5 7.5 7.5zm-55.48-308.367h16.796v57.606h-16.796c0-7.064 0-52.067 0-57.606zm-63.591 0h16.796v57.606h-16.796c0-7.064 0-52.067 0-57.606zm-212 0h16.796v57.606h-16.796c0-7.064 0-52.067 0-57.606zm-63.591 0h16.796v57.606h-16.796c0-7.064 0-52.067 0-57.606zm-31.184 139.052v-85.399c0-3.979 3.237-7.217 7.217-7.217h8.968v12.125c0 7.744 6.301 14.045 14.046 14.045h18.705c7.744 0 14.045-6.301 14.045-14.045v-12.124h16.795v12.125c0 7.744 6.301 14.045 14.046 14.045h18.705c7.744 0 14.045-6.301 14.045-14.045v-12.125h165.204v12.125c0 7.744 6.301 14.045 14.046 14.045h18.705c7.744 0 14.045-6.301 14.045-14.045v-12.125h16.795v12.125c0 7.744 6.301 14.045 14.046 14.045h18.705c7.744 0 14.045-6.301 14.045-14.045v-12.125h8.968c3.979 0 7.217 3.237 7.217 7.217v85.398z"/><path d="m318.789 84.347h-45.289c-4.143 0-7.5 3.357-7.5 7.5s3.357 7.5 7.5 7.5h44.333v16.795h-123.666v-16.795h44.333c4.143 0 7.5-3.357 7.5-7.5s-3.357-7.5-7.5-7.5h-45.289c-7.744 0-14.045 6.301-14.045 14.045v18.705c0 7.744 6.301 14.045 14.045 14.045h125.577c7.744 0 14.045-6.301 14.045-14.045v-18.705c0-7.745-6.3-14.045-14.044-14.045z"/></g></g></svg>